<svg width="32" height="32" viewBox="0 0 32 32" fill="none" xmlns="http://www.w3.org/2000/svg">
<g clip-path="url(#clip0_1_69)">
<path fill-rule="evenodd" clip-rule="evenodd" d="M20.3978 9.34824C19.0853 8.4692 17.5421 8 15.9634 8V0C19.1207 0 22.2071 0.938384 24.8323 2.69649C27.4574 4.45458 29.5035 6.95345 30.7118 9.87704C31.9199 12.8006 32.2361 16.0178 31.6201 19.1214C31.0042 22.2251 29.4838 25.0761 27.2513 27.3137C25.0188 29.5514 22.1743 31.0752 19.0778 31.6926C15.9812 32.3099 12.7714 31.993 9.85447 30.7821C6.93755 29.571 4.44441 27.5203 2.69033 24.8891C0.93624 22.2579 0 19.1645 0 16H7.98172C7.98172 17.5822 8.44985 19.129 9.32688 20.4446C10.2039 21.7602 11.4505 22.7855 12.909 23.391C14.3674 23.9966 15.9723 24.155 17.5206 23.8462C19.0689 23.5376 20.4911 22.7757 21.6074 21.6569C22.7236 20.538 23.4838 19.1126 23.7918 17.5607C24.0998 16.0089 23.9417 14.4003 23.3376 12.9386C22.7335 11.4767 21.7104 10.2273 20.3978 9.34824Z" fill="#00915A"/>
<path fill-rule="evenodd" clip-rule="evenodd" d="M7.98172 4.22794e-06C7.98172 1.05058 7.77527 2.09087 7.37415 3.06148C6.97303 4.03207 6.3851 4.91399 5.64393 5.65686C4.90276 6.39973 4.02286 6.989 3.05447 7.39104C2.08608 7.79308 1.04817 8 3.48889e-07 8L0 16C2.09635 16 4.17217 15.5862 6.10895 14.7821C8.04573 13.978 9.80554 12.7994 11.2878 11.3137C12.7702 9.828 13.9461 8.06416 14.7483 6.12294C15.5505 4.18172 15.9634 2.10115 15.9634 0L7.98172 4.22794e-06Z" fill="#00915A"/>
</g>
<defs>
<clipPath id="clip0_1_69">
<rect width="32" height="32" fill="white"/>
</clipPath>
</defs>
</svg>
