<svg width="24" height="24" viewBox="0 0 24 24" fill="none" xmlns="http://www.w3.org/2000/svg">
<g clip-path="url(#clip0_1_1118)">
<path d="M0.0537109 24L1.74142 17.8373C0.700401 16.0338 0.152611 13.9878 0.153461 11.8918C0.156091 5.33464 5.49279 0 12.0499 0C15.2323 0.00127 18.2192 1.23986 20.4652 3.48773C22.7113 5.73561 23.9476 8.7236 23.9463 11.9013C23.9437 18.4585 18.6065 23.7938 12.0501 23.7938H12.05H12.0452C10.0541 23.793 8.09776 23.2937 6.36018 22.3463L0.0537109 24ZM6.65235 20.1932L7.01342 20.4074C8.53152 21.3081 10.2718 21.7845 12.046 21.7852H12.05C17.4999 21.7852 21.9355 17.351 21.9377 11.9005C21.9388 9.25935 20.9112 6.77584 19.0444 4.90748C17.1776 3.03912 14.6949 2.00959 12.0539 2.00858C6.59989 2.00858 2.16421 6.44251 2.16203 11.8926C2.16127 13.7602 2.68404 15.5792 3.67381 17.153L3.90894 17.527L2.91003 21.1746L6.65235 20.1932Z" fill="#4B4B4B"/>
<path fill-rule="evenodd" clip-rule="evenodd" d="M9.07661 6.92041C8.83535 6.34096 8.59028 6.41936 8.40782 6.41028C8.23464 6.40166 8.03628 6.39984 7.83812 6.39984C7.63996 6.39984 7.31794 6.4742 7.04546 6.77167C6.773 7.06916 6.00513 7.78808 6.00513 9.25067C6.00513 10.7133 7.07024 12.1263 7.21887 12.3246C7.36748 12.5229 9.31489 15.5244 12.2967 16.8116C13.0059 17.1177 13.5596 17.3005 13.9913 17.4375C14.7034 17.6636 15.3514 17.6318 15.8635 17.5553C16.4346 17.47 17.6222 16.8364 17.8699 16.1422C18.1176 15.4481 18.1176 14.8532 18.0433 14.7292C17.969 14.6053 17.7708 14.5309 17.4736 14.3821C17.1763 14.2334 15.7149 13.5145 15.4424 13.4154C15.17 13.3162 14.9718 13.2666 14.7736 13.5641C14.5755 13.8616 14.0058 14.5309 13.8324 14.7292C13.6591 14.9275 13.4857 14.9523 13.1884 14.8036C12.8912 14.6549 11.9334 14.3411 10.798 13.3287C9.91443 12.5408 9.31782 11.5676 9.14443 11.2701C8.97104 10.9727 9.12599 10.8118 9.27479 10.6637C9.40849 10.5306 9.57202 10.3166 9.72065 10.1431C9.86926 9.96956 9.91881 9.84561 10.0179 9.64731C10.117 9.44898 10.0674 9.27545 9.99311 9.12671C9.91879 8.97798 9.32433 7.51536 9.07661 6.92041Z" fill="#4B4B4B"/>
</g>
<defs>
<clipPath id="clip0_1_1118">
<rect width="24" height="24" fill="white"/>
</clipPath>
</defs>
</svg>
